<?xml version="1.0" encoding="UTF-8" standalone="no"?>
<!DOCTYPE svg PUBLIC "-//W3C//DTD SVG 1.1//EN" "http://www.w3.org/Graphics/SVG/1.1/DTD/svg11.dtd">
<svg width="100%" height="100%" viewBox="0 0 475 913" version="1.1" xmlns="http://www.w3.org/2000/svg" xmlns:xlink="http://www.w3.org/1999/xlink" xml:space="preserve" xmlns:serif="http://www.serif.com/" style="fill-rule:evenodd;clip-rule:evenodd;stroke-linejoin:round;stroke-miterlimit:2;">
    <g id="Lumen-Logo" serif:id="Lumen Logo">
        <path d="M183.41327,294.03161C158.91364,303.22533 71.62015,330.38009 52.94001,340.34451C-0.17925,368.67956 16.69956,404.18383 26.26177,410.75287C29.11127,412.71042 27.22873,413.70254 26.9469,414.28434C23.75527,411.98462 4.04772,397.78438 0.60068,372.76465C0.47479,371.85089 -0.31973,371.85211 0.14377,202.82361C0.16103,196.52927 0.27327,155.59709 40.42984,135.24034C51.92629,129.41239 126.58427,104.13119 134.12847,101.57652C134.35086,101.50121 402.11235,7.75261 418.33223,2.20181C421.00768,1.28622 440.49265,-5.38196 452.77114,10.16343C463.0516,23.17917 461.16526,24.79664 461.30146,110.82334C461.36671,152.03426 464.6548,176.24322 440.18439,199.80256C428.80566,210.75764 421.78219,211.39025 313.30054,249.10792C193.85441,290.63779 193.77706,290.36003 183.41327,294.03161Z" style="fill:#0092fc;fill-opacity:1;"/>
        <path d="M183.41327,294.03161C158.91364,303.22533 71.62015,330.38009 52.94001,340.34451C-0.17925,368.67956 16.69956,404.18383 26.26177,410.75287C29.11127,412.71042 27.22873,413.70254 26.9469,414.28434C23.75527,411.98462 4.04772,397.78438 0.60068,372.76465C0.47479,371.85089 -0.31973,371.85211 0.14377,202.82361C0.16103,196.52927 0.27327,155.59709 40.42984,135.24034C51.92629,129.41239 126.58427,104.13119 134.12847,101.57652C134.35086,101.50121 402.11235,7.75261 418.33223,2.20181C421.00768,1.28622 440.49265,-5.38196 452.77114,10.16343C463.0516,23.17917 461.16526,24.79664 461.30146,110.82334C461.36671,152.03426 464.6548,176.24322 440.18439,199.80256C428.80566,210.75764 421.78219,211.39025 313.30054,249.10792C193.85441,290.63779 193.77706,290.36003 183.41327,294.03161Z" style="fill:url(#_Linear1);"/>
        <path d="M428.17011,366.02067C431.92831,366.935 448.65813,369.73454 459.76817,381.2463C477.41026,399.52628 474.64955,411.96559 474.61994,474.82638C474.61095,493.90382 480.60894,535.7471 436.94264,561.36087C428.60613,566.2509 232.48594,633.24953 221.82482,637.65766C212.33301,639.80175 79.43882,686.1777 67.08872,690.4875C24.80586,705.24291 12.1799,730.77392 24.90765,751.97357C26.70974,754.28048 26.61625,754.76122 29.93359,757.09894C32.29521,758.76317 36.71712,761.91353 36.95178,762.17556C36.60221,762.84345 36.09429,763.25682 35.96384,763.31198C21.96619,757.22036 9.0802,741.47357 4.55138,725.73616C1.47699,715.05281 1.64286,714.91367 0.81727,586.82491C0.70874,569.98582 -4.66555,530.40405 33.42178,505.1558C48.60612,495.09003 151.9065,463.57317 156.45586,459.91851C193.72886,448.08614 365.83452,387.36749 425.19845,367.80291C427.88137,366.91869 427.4869,366.43042 428.17011,366.02067Z" style="fill:#0092fc;fill-opacity:1;"/>
        <path d="M428.17011,366.02067C431.92831,366.935 448.65813,369.73454 459.76817,381.2463C477.41026,399.52628 474.64955,411.96559 474.61994,474.82638C474.61095,493.90382 480.60894,535.7471 436.94264,561.36087C428.60613,566.2509 232.48594,633.24953 221.82482,637.65766C212.33301,639.80175 79.43882,686.1777 67.08872,690.4875C24.80586,705.24291 12.1799,730.77392 24.90765,751.97357C26.70974,754.28048 26.61625,754.76122 29.93359,757.09894C32.29521,758.76317 36.71712,761.91353 36.95178,762.17556C36.60221,762.84345 36.09429,763.25682 35.96384,763.31198C21.96619,757.22036 9.0802,741.47357 4.55138,725.73616C1.47699,715.05281 1.64286,714.91367 0.81727,586.82491C0.70874,569.98582 -4.66555,530.40405 33.42178,505.1558C48.60612,495.09003 151.9065,463.57317 156.45586,459.91851C193.72886,448.08614 365.83452,387.36749 425.19845,367.80291C427.88137,366.91869 427.4869,366.43042 428.17011,366.02067Z" style="fill:url(#_Linear2);"/>
        <path d="M36.92199,762.14975C34.94971,761.4791 26.81492,755.80973 24.90765,751.97357C12.1799,730.77392 24.80586,705.24291 67.08872,690.4875C79.43882,686.1777 212.33301,639.80175 221.82482,637.65766C224.32424,639.51076 359.94775,682.1136 368.22288,684.76978C447.36698,710.17373 453.02844,708.21855 464.70422,730.07676C471.02219,741.90463 470.32574,742.57176 470.19699,850.82343C470.13375,903.99176 472.10709,907.08951 462.07279,911.50276C454.92334,914.64721 454.53413,911.94879 356.3163,876.52163C277.4209,848.06407 277.3317,848.64832 198.31561,820.52021C119.46626,792.45145 48.46369,769.55126 35.96384,763.31198C36.03219,763.31727 36.60232,762.63673 36.94644,762.18814L36.92199,762.14975Z" style="fill:#0060b2;fill-opacity:1;"/>
        <path d="M36.92199,762.14975C34.94971,761.4791 26.81492,755.80973 24.90765,751.97357C12.1799,730.77392 24.80586,705.24291 67.08872,690.4875C79.43882,686.1777 212.33301,639.80175 221.82482,637.65766C224.32424,639.51076 359.94775,682.1136 368.22288,684.76978C447.36698,710.17373 453.02844,708.21855 464.70422,730.07676C471.02219,741.90463 470.32574,742.57176 470.19699,850.82343C470.13375,903.99176 472.10709,907.08951 462.07279,911.50276C454.92334,914.64721 454.53413,911.94879 356.3163,876.52163C277.4209,848.06407 277.3317,848.64832 198.31561,820.52021C119.46626,792.45145 48.46369,769.55126 35.96384,763.31198C36.03219,763.31727 36.60232,762.63673 36.94644,762.18814L36.92199,762.14975Z" style="fill:url(#_Linear3);"/>
        <path d="M183.41327,294.03161C183.74133,294.49428 184.06939,294.95694 184.39745,295.4196C189.07857,296.13471 425.85471,365.1342 428.17011,366.02067C427.4869,366.43042 427.88137,366.91869 425.19845,367.80291C365.83452,387.36749 193.72886,448.08614 156.45586,459.91851C138.70114,452.57683 42.32316,423.76886 26.9469,414.28434C27.22873,413.70254 29.11127,412.71042 26.26177,410.75287C16.69956,404.18383 -0.17925,368.67956 52.94001,340.34451C71.62015,330.38009 158.91364,303.22533 183.41327,294.03161Z" style="fill:#0060b2;fill-opacity:1;"/>
        <path d="M183.41327,294.03161C183.74133,294.49428 184.06939,294.95694 184.39745,295.4196C189.07857,296.13471 425.85471,365.1342 428.17011,366.02067C427.4869,366.43042 427.88137,366.91869 425.19845,367.80291C365.83452,387.36749 193.72886,448.08614 156.45586,459.91851C138.70114,452.57683 42.32316,423.76886 26.9469,414.28434C27.22873,413.70254 29.11127,412.71042 26.26177,410.75287C16.69956,404.18383 -0.17925,368.67956 52.94001,340.34451C71.62015,330.38009 158.91364,303.22533 183.41327,294.03161Z" style="fill:url(#_Linear4);"/>
    </g>
    <defs>
        <linearGradient id="_Linear1" x1="0" y1="0" x2="1" y2="0" gradientUnits="userSpaceOnUse" gradientTransform="matrix(427.670815,-286.811691,286.811691,427.670815,0.499293,333.676739)"><stop offset="0" style="stop-color:#0098ff;stop-opacity:1"/><stop offset="0.21" style="stop-color:#0098ff;stop-opacity:1"/><stop offset="0.35" style="stop-color:#0097fd;stop-opacity:0.99"/><stop offset="0.48" style="stop-color:#0095fa;stop-opacity:0.97"/><stop offset="0.59" style="stop-color:#0093f6;stop-opacity:0.94"/><stop offset="0.7" style="stop-color:#008eef;stop-opacity:0.89"/><stop offset="0.81" style="stop-color:#0089e6;stop-opacity:0.84"/><stop offset="0.91" style="stop-color:#0082da;stop-opacity:0.76"/><stop offset="0.99" style="stop-color:#007bce;stop-opacity:0.68"/><stop offset="1" style="stop-color:#007bce;stop-opacity:0.68"/></linearGradient>
        <linearGradient id="_Linear2" x1="0" y1="0" x2="1" y2="0" gradientUnits="userSpaceOnUse" gradientTransform="matrix(369.325188,-284.420227,182.045235,236.389272,20.181547,678.981043)"><stop offset="0" style="stop-color:#0098ff;stop-opacity:1"/><stop offset="0.21" style="stop-color:#0098ff;stop-opacity:1"/><stop offset="0.48" style="stop-color:#0095fb;stop-opacity:1"/><stop offset="0.59" style="stop-color:#0093f6;stop-opacity:1"/><stop offset="0.7" style="stop-color:#008fef;stop-opacity:1"/><stop offset="0.81" style="stop-color:#008ae6;stop-opacity:1"/><stop offset="0.91" style="stop-color:#0083db;stop-opacity:1"/><stop offset="1" style="stop-color:#007bce;stop-opacity:1"/></linearGradient>
        <linearGradient id="_Linear3" x1="0" y1="0" x2="1" y2="0" gradientUnits="userSpaceOnUse" gradientTransform="matrix(359.86593,138.552253,-138.552253,359.86593,68.304177,724.602266)"><stop offset="0" style="stop-color:#004ea1;stop-opacity:1"/><stop offset="0.11" style="stop-color:#0059ab;stop-opacity:1"/><stop offset="0.23" style="stop-color:#0062b4;stop-opacity:1"/><stop offset="0.34" style="stop-color:#0069bc;stop-opacity:1"/><stop offset="0.46" style="stop-color:#006fc2;stop-opacity:1"/><stop offset="0.59" style="stop-color:#0074c6;stop-opacity:1"/><stop offset="1" style="stop-color:#0079cb;stop-opacity:1"/></linearGradient>
        <linearGradient id="_Linear4" x1="0" y1="0" x2="1" y2="0" gradientUnits="userSpaceOnUse" gradientTransform="matrix(336.519952,19.507613,-19.507613,336.519952,60.016507,346.513057)"><stop offset="0" style="stop-color:#004ea1;stop-opacity:1"/><stop offset="0.28" style="stop-color:#005fb2;stop-opacity:1"/><stop offset="0.41" style="stop-color:#0066b9;stop-opacity:1"/><stop offset="0.55" style="stop-color:#006cbf;stop-opacity:1"/><stop offset="0.67" style="stop-color:#0071c4;stop-opacity:1"/><stop offset="0.79" style="stop-color:#0075c7;stop-opacity:1"/><stop offset="0.91" style="stop-color:#0078ca;stop-opacity:1"/><stop offset="1" style="stop-color:#0079cb;stop-opacity:1"/></linearGradient>
    </defs>
</svg>
